<?xml version="1.0" encoding="UTF-8" standalone="no"?>
<!DOCTYPE svg PUBLIC "-//W3C//DTD SVG 1.1//EN"
 "http://www.w3.org/Graphics/SVG/1.1/DTD/svg11.dtd">
<!-- Generated by graphviz version 2.43.0 (0)
 -->
<!-- Title: finite_state_machine Pages: 1 -->
<svg width="308pt" height="116pt"
 viewBox="0.00 0.00 308.00 115.59" xmlns="http://www.w3.org/2000/svg" xmlns:xlink="http://www.w3.org/1999/xlink">
<g id="graph0" class="graph" transform="scale(1 1) rotate(0) translate(4 111.59)">
<title>finite_state_machine</title>
<polygon fill="white" stroke="transparent" points="-4,4 -4,-111.59 304,-111.59 304,4 -4,4"/>
<!-- 4 -->
<g id="node1" class="node">
<title>4</title>
<ellipse fill="none" stroke="black" cx="194" cy="-84.59" rx="18" ry="18"/>
<text text-anchor="middle" x="194" y="-80.89" font-family="Helvetica,Arial,sans-serif" font-size="14.00">4</text>
</g>
<!-- 5 -->
<g id="node2" class="node">
<title>5</title>
<ellipse fill="none" stroke="black" cx="282" cy="-57.59" rx="18" ry="18"/>
<text text-anchor="middle" x="282" y="-53.89" font-family="Helvetica,Arial,sans-serif" font-size="14.00">5</text>
</g>
<!-- 4&#45;&gt;5 -->
<g id="edge1" class="edge">
<title>4&#45;&gt;5</title>
<path fill="none" stroke="black" d="M211.58,-79.38C223.84,-75.54 240.76,-70.22 254.84,-65.8"/>
<polygon fill="black" stroke="black" points="255.98,-69.11 264.47,-62.78 253.88,-62.43 255.98,-69.11"/>
<text text-anchor="middle" x="238" y="-76.39" font-family="Helvetica,Arial,sans-serif" font-size="14.00">20</text>
</g>
<!-- 3 -->
<g id="node3" class="node">
<title>3</title>
<ellipse fill="none" stroke="black" cx="194" cy="-30.59" rx="18" ry="18"/>
<text text-anchor="middle" x="194" y="-26.89" font-family="Helvetica,Arial,sans-serif" font-size="14.00">3</text>
</g>
<!-- 3&#45;&gt;5 -->
<g id="edge2" class="edge">
<title>3&#45;&gt;5</title>
<path fill="none" stroke="black" d="M211.58,-35.79C223.84,-39.64 240.76,-44.96 254.84,-49.37"/>
<polygon fill="black" stroke="black" points="253.88,-52.74 264.47,-52.4 255.98,-46.06 253.88,-52.74"/>
<text text-anchor="middle" x="238" y="-49.39" font-family="Helvetica,Arial,sans-serif" font-size="14.00">28</text>
</g>
<!-- 2 -->
<g id="node4" class="node">
<title>2</title>
<ellipse fill="none" stroke="black" cx="106" cy="-84.59" rx="18" ry="18"/>
<text text-anchor="middle" x="106" y="-80.89" font-family="Helvetica,Arial,sans-serif" font-size="14.00">2</text>
</g>
<!-- 2&#45;&gt;4 -->
<g id="edge3" class="edge">
<title>2&#45;&gt;4</title>
<path fill="none" stroke="black" d="M123.6,-89.19C129.38,-90.57 135.93,-91.9 142,-92.59 149.07,-93.39 150.93,-93.39 158,-92.59 160.75,-92.28 163.6,-91.83 166.43,-91.31"/>
<polygon fill="black" stroke="black" points="167.35,-94.7 176.4,-89.19 165.89,-87.85 167.35,-94.7"/>
<text text-anchor="middle" x="150" y="-96.39" font-family="Helvetica,Arial,sans-serif" font-size="14.00">4</text>
</g>
<!-- 2&#45;&gt;3 -->
<g id="edge4" class="edge">
<title>2&#45;&gt;3</title>
<path fill="none" stroke="black" d="M122.34,-75.93C132.55,-70.08 146.21,-62.09 158,-54.59 162.03,-52.03 166.25,-49.23 170.32,-46.47"/>
<polygon fill="black" stroke="black" points="172.58,-49.17 178.85,-40.62 168.62,-43.4 172.58,-49.17"/>
<text text-anchor="middle" x="150" y="-67.39" font-family="Helvetica,Arial,sans-serif" font-size="14.00">16</text>
</g>
<!-- 1 -->
<g id="node5" class="node">
<title>1</title>
<ellipse fill="none" stroke="black" cx="106" cy="-30.59" rx="18" ry="18"/>
<text text-anchor="middle" x="106" y="-26.89" font-family="Helvetica,Arial,sans-serif" font-size="14.00">1</text>
</g>
<!-- 1&#45;&gt;4 -->
<g id="edge5" class="edge">
<title>1&#45;&gt;4</title>
<path fill="none" stroke="black" d="M124.15,-28.83C134.59,-28.57 147.83,-29.71 158,-35.59 160.91,-37.27 169.75,-49.66 177.81,-61.55"/>
<polygon fill="black" stroke="black" points="174.98,-63.61 183.45,-69.97 180.79,-59.71 174.98,-63.61"/>
<text text-anchor="middle" x="150" y="-39.39" font-family="Helvetica,Arial,sans-serif" font-size="14.00">8</text>
</g>
<!-- 1&#45;&gt;3 -->
<g id="edge6" class="edge">
<title>1&#45;&gt;3</title>
<path fill="none" stroke="black" d="M118.6,-17.13C128.59,-7.25 143.63,3.59 158,-1.59 163.57,-3.6 168.88,-6.92 173.6,-10.61"/>
<polygon fill="black" stroke="black" points="171.58,-13.49 181.4,-17.45 176.19,-8.22 171.58,-13.49"/>
<text text-anchor="middle" x="150" y="-5.39" font-family="Helvetica,Arial,sans-serif" font-size="14.00">16</text>
</g>
<!-- 0 -->
<g id="node6" class="node">
<title>0</title>
<ellipse fill="none" stroke="black" cx="18" cy="-57.59" rx="18" ry="18"/>
<text text-anchor="middle" x="18" y="-53.89" font-family="Helvetica,Arial,sans-serif" font-size="14.00">0</text>
</g>
<!-- 0&#45;&gt;2 -->
<g id="edge7" class="edge">
<title>0&#45;&gt;2</title>
<path fill="none" stroke="black" d="M35.58,-62.79C47.84,-66.64 64.76,-71.96 78.84,-76.37"/>
<polygon fill="black" stroke="black" points="77.88,-79.74 88.47,-79.4 79.98,-73.06 77.88,-79.74"/>
<text text-anchor="middle" x="62" y="-76.39" font-family="Helvetica,Arial,sans-serif" font-size="14.00">29</text>
</g>
<!-- 0&#45;&gt;1 -->
<g id="edge8" class="edge">
<title>0&#45;&gt;1</title>
<path fill="none" stroke="black" d="M35.58,-52.38C47.84,-48.54 64.76,-43.22 78.84,-38.8"/>
<polygon fill="black" stroke="black" points="79.98,-42.11 88.47,-35.78 77.88,-35.43 79.98,-42.11"/>
<text text-anchor="middle" x="62" y="-49.39" font-family="Helvetica,Arial,sans-serif" font-size="14.00">24</text>
</g>
</g>
</svg>
