<?xml version="1.0" encoding="UTF-8" standalone="no"?>
<!DOCTYPE svg PUBLIC "-//W3C//DTD SVG 1.1//EN"
 "http://www.w3.org/Graphics/SVG/1.1/DTD/svg11.dtd">
<!-- Generated by graphviz version 2.43.0 (0)
 -->
<!-- Title: finite_state_machine Pages: 1 -->
<svg width="308pt" height="179pt"
 viewBox="0.00 0.00 308.00 179.27" xmlns="http://www.w3.org/2000/svg" xmlns:xlink="http://www.w3.org/1999/xlink">
<g id="graph0" class="graph" transform="scale(1 1) rotate(0) translate(4 175.27)">
<title>finite_state_machine</title>
<polygon fill="white" stroke="transparent" points="-4,4 -4,-175.27 304,-175.27 304,4 -4,4"/>
<!-- 5 -->
<g id="node1" class="node">
<title>5</title>
<ellipse fill="none" stroke="black" cx="194" cy="-153.27" rx="18" ry="18"/>
<text text-anchor="middle" x="194" y="-149.57" font-family="Helvetica,Arial,sans-serif" font-size="14.00">5</text>
</g>
<!-- 6 -->
<g id="node2" class="node">
<title>6</title>
<ellipse fill="none" stroke="black" cx="282" cy="-99.27" rx="18" ry="18"/>
<text text-anchor="middle" x="282" y="-95.57" font-family="Helvetica,Arial,sans-serif" font-size="14.00">6</text>
</g>
<!-- 5&#45;&gt;6 -->
<g id="edge1" class="edge">
<title>5&#45;&gt;6</title>
<path fill="none" stroke="black" d="M209.59,-144.11C222.68,-135.88 242.15,-123.66 257.45,-114.06"/>
<polygon fill="black" stroke="black" points="259.73,-116.75 266.34,-108.47 256.01,-110.83 259.73,-116.75"/>
<text text-anchor="middle" x="238" y="-134.07" font-family="Helvetica,Arial,sans-serif" font-size="14.00">20</text>
</g>
<!-- 4 -->
<g id="node3" class="node">
<title>4</title>
<ellipse fill="none" stroke="black" cx="194" cy="-99.27" rx="18" ry="18"/>
<text text-anchor="middle" x="194" y="-95.57" font-family="Helvetica,Arial,sans-serif" font-size="14.00">4</text>
</g>
<!-- 4&#45;&gt;6 -->
<g id="edge2" class="edge">
<title>4&#45;&gt;6</title>
<path fill="none" stroke="black" d="M212.4,-99.27C224.25,-99.27 240.18,-99.27 253.71,-99.27"/>
<polygon fill="black" stroke="black" points="253.92,-102.77 263.92,-99.27 253.92,-95.77 253.92,-102.77"/>
<text text-anchor="middle" x="238" y="-103.07" font-family="Helvetica,Arial,sans-serif" font-size="14.00">20</text>
</g>
<!-- 3 -->
<g id="node4" class="node">
<title>3</title>
<ellipse fill="none" stroke="black" cx="194" cy="-45.27" rx="18" ry="18"/>
<text text-anchor="middle" x="194" y="-41.57" font-family="Helvetica,Arial,sans-serif" font-size="14.00">3</text>
</g>
<!-- 3&#45;&gt;6 -->
<g id="edge3" class="edge">
<title>3&#45;&gt;6</title>
<path fill="none" stroke="black" d="M209.59,-54.43C222.68,-62.65 242.15,-74.87 257.45,-84.48"/>
<polygon fill="black" stroke="black" points="256.01,-87.71 266.34,-90.06 259.73,-81.78 256.01,-87.71"/>
<text text-anchor="middle" x="238" y="-80.07" font-family="Helvetica,Arial,sans-serif" font-size="14.00">8</text>
</g>
<!-- 2 -->
<g id="node5" class="node">
<title>2</title>
<ellipse fill="none" stroke="black" cx="106" cy="-39.27" rx="18" ry="18"/>
<text text-anchor="middle" x="106" y="-35.57" font-family="Helvetica,Arial,sans-serif" font-size="14.00">2</text>
</g>
<!-- 2&#45;&gt;4 -->
<g id="edge4" class="edge">
<title>2&#45;&gt;4</title>
<path fill="none" stroke="black" d="M124.27,-39.89C134.76,-40.98 148.01,-43.7 158,-50.27 160.79,-52.1 169.54,-64.34 177.59,-76.13"/>
<polygon fill="black" stroke="black" points="174.73,-78.15 183.23,-84.48 180.53,-74.23 174.73,-78.15"/>
<text text-anchor="middle" x="150" y="-54.07" font-family="Helvetica,Arial,sans-serif" font-size="14.00">4</text>
</g>
<!-- 2&#45;&gt;3 -->
<g id="edge5" class="edge">
<title>2&#45;&gt;3</title>
<path fill="none" stroke="black" d="M116.47,-24.39C126.22,-11.08 142.19,5.25 158,-2.27 166.5,-6.31 173.61,-13.53 179.15,-20.92"/>
<polygon fill="black" stroke="black" points="176.44,-23.15 184.93,-29.49 182.24,-19.24 176.44,-23.15"/>
<text text-anchor="middle" x="150" y="-6.07" font-family="Helvetica,Arial,sans-serif" font-size="14.00">16</text>
</g>
<!-- 1 -->
<g id="node6" class="node">
<title>1</title>
<ellipse fill="none" stroke="black" cx="106" cy="-104.27" rx="18" ry="18"/>
<text text-anchor="middle" x="106" y="-100.57" font-family="Helvetica,Arial,sans-serif" font-size="14.00">1</text>
</g>
<!-- 1&#45;&gt;5 -->
<g id="edge6" class="edge">
<title>1&#45;&gt;5</title>
<path fill="none" stroke="black" d="M121.98,-112.8C134.97,-120.2 154.01,-131.05 169.1,-139.65"/>
<polygon fill="black" stroke="black" points="167.48,-142.76 177.9,-144.67 170.95,-136.67 167.48,-142.76"/>
<text text-anchor="middle" x="150" y="-136.07" font-family="Helvetica,Arial,sans-serif" font-size="14.00">10</text>
</g>
<!-- 1&#45;&gt;4 -->
<g id="edge7" class="edge">
<title>1&#45;&gt;4</title>
<path fill="none" stroke="black" d="M123.99,-103.28C135.81,-102.59 151.83,-101.66 165.46,-100.87"/>
<polygon fill="black" stroke="black" points="165.97,-104.34 175.75,-100.27 165.56,-97.36 165.97,-104.34"/>
<text text-anchor="middle" x="150" y="-105.07" font-family="Helvetica,Arial,sans-serif" font-size="14.00">8</text>
</g>
<!-- 1&#45;&gt;3 -->
<g id="edge8" class="edge">
<title>1&#45;&gt;3</title>
<path fill="none" stroke="black" d="M121.2,-94.52C134.52,-85.39 154.67,-71.57 170.23,-60.89"/>
<polygon fill="black" stroke="black" points="172.51,-63.57 178.78,-55.02 168.55,-57.8 172.51,-63.57"/>
<text text-anchor="middle" x="150" y="-83.07" font-family="Helvetica,Arial,sans-serif" font-size="14.00">16</text>
</g>
<!-- 0 -->
<g id="node7" class="node">
<title>0</title>
<ellipse fill="none" stroke="black" cx="18" cy="-66.27" rx="18" ry="18"/>
<text text-anchor="middle" x="18" y="-62.57" font-family="Helvetica,Arial,sans-serif" font-size="14.00">0</text>
</g>
<!-- 0&#45;&gt;2 -->
<g id="edge9" class="edge">
<title>0&#45;&gt;2</title>
<path fill="none" stroke="black" d="M34.87,-59.41C40.81,-56.98 47.65,-54.34 54,-52.27 61.85,-49.71 70.52,-47.34 78.44,-45.34"/>
<polygon fill="black" stroke="black" points="79.41,-48.7 88.31,-42.94 77.76,-41.9 79.41,-48.7"/>
<text text-anchor="middle" x="62" y="-56.07" font-family="Helvetica,Arial,sans-serif" font-size="14.00">29</text>
</g>
<!-- 0&#45;&gt;1 -->
<g id="edge10" class="edge">
<title>0&#45;&gt;1</title>
<path fill="none" stroke="black" d="M34.77,-73.24C47.38,-78.81 65.29,-86.72 79.87,-93.16"/>
<polygon fill="black" stroke="black" points="78.76,-96.5 89.33,-97.34 81.59,-90.1 78.76,-96.5"/>
<text text-anchor="middle" x="62" y="-92.07" font-family="Helvetica,Arial,sans-serif" font-size="14.00">24</text>
</g>
</g>
</svg>
