<?xml version="1.0" encoding="UTF-8" standalone="no"?>
<!DOCTYPE svg PUBLIC "-//W3C//DTD SVG 1.1//EN"
 "http://www.w3.org/Graphics/SVG/1.1/DTD/svg11.dtd">
<!-- Generated by graphviz version 2.43.0 (0)
 -->
<!-- Title: finite_state_machine Pages: 1 -->
<svg width="468pt" height="166pt"
 viewBox="0.00 0.00 468.00 166.00" xmlns="http://www.w3.org/2000/svg" xmlns:xlink="http://www.w3.org/1999/xlink">
<g id="graph0" class="graph" transform="scale(1 1) rotate(0) translate(4 162)">
<title>finite_state_machine</title>
<polygon fill="white" stroke="transparent" points="-4,4 -4,-162 464,-162 464,4 -4,4"/>
<!-- 1 -->
<g id="node1" class="node">
<title>1</title>
<ellipse fill="none" stroke="black" cx="18" cy="-66" rx="18" ry="18"/>
<text text-anchor="middle" x="18" y="-62.3" font-family="Helvetica,Arial,sans-serif" font-size="14.00">1</text>
</g>
<!-- 5 -->
<g id="node2" class="node">
<title>5</title>
<ellipse fill="none" stroke="black" cx="106" cy="-140" rx="18" ry="18"/>
<text text-anchor="middle" x="106" y="-136.3" font-family="Helvetica,Arial,sans-serif" font-size="14.00">5</text>
</g>
<!-- 1&#45;&gt;5 -->
<g id="edge1" class="edge">
<title>1&#45;&gt;5</title>
<path fill="none" stroke="black" d="M30.43,-79.25C37.02,-86.57 45.63,-95.65 54,-103 62.85,-110.77 73.27,-118.54 82.38,-124.94"/>
<polygon fill="black" stroke="black" points="80.39,-127.83 90.61,-130.62 84.36,-122.06 80.39,-127.83"/>
<text text-anchor="middle" x="62" y="-118.8" font-family="Helvetica,Arial,sans-serif" font-size="14.00">21</text>
</g>
<!-- 4 -->
<g id="node3" class="node">
<title>4</title>
<ellipse fill="none" stroke="black" cx="194" cy="-118" rx="18" ry="18"/>
<text text-anchor="middle" x="194" y="-114.3" font-family="Helvetica,Arial,sans-serif" font-size="14.00">4</text>
</g>
<!-- 1&#45;&gt;4 -->
<g id="edge2" class="edge">
<title>1&#45;&gt;4</title>
<path fill="none" stroke="black" d="M35.37,-70.89C65.55,-79.91 130.21,-99.24 166.64,-110.12"/>
<polygon fill="black" stroke="black" points="165.96,-113.57 176.55,-113.08 167.97,-106.87 165.96,-113.57"/>
<text text-anchor="middle" x="106" y="-100.8" font-family="Helvetica,Arial,sans-serif" font-size="14.00">1</text>
</g>
<!-- 5&#45;&gt;4 -->
<g id="edge11" class="edge">
<title>5&#45;&gt;4</title>
<path fill="none" stroke="black" d="M124.32,-141.34C134.35,-141.63 147.1,-141.13 158,-138 161.97,-136.86 165.98,-135.18 169.78,-133.28"/>
<polygon fill="black" stroke="black" points="171.73,-136.2 178.72,-128.24 168.29,-130.1 171.73,-136.2"/>
<text text-anchor="middle" x="150" y="-143.8" font-family="Helvetica,Arial,sans-serif" font-size="14.00">5</text>
</g>
<!-- 4&#45;&gt;5 -->
<g id="edge13" class="edge">
<title>4&#45;&gt;5</title>
<path fill="none" stroke="black" d="M175.67,-116.15C165.64,-115.62 152.89,-115.87 142,-119 137.79,-120.21 133.56,-122.06 129.59,-124.18"/>
<polygon fill="black" stroke="black" points="127.64,-121.26 120.86,-129.4 131.24,-127.27 127.64,-121.26"/>
<text text-anchor="middle" x="150" y="-122.8" font-family="Helvetica,Arial,sans-serif" font-size="14.00">9</text>
</g>
<!-- 3 -->
<g id="node6" class="node">
<title>3</title>
<ellipse fill="none" stroke="black" cx="274" cy="-73" rx="18" ry="18"/>
<text text-anchor="middle" x="274" y="-69.3" font-family="Helvetica,Arial,sans-serif" font-size="14.00">3</text>
</g>
<!-- 4&#45;&gt;3 -->
<g id="edge12" class="edge">
<title>4&#45;&gt;3</title>
<path fill="none" stroke="black" d="M210.04,-109.32C221.15,-102.91 236.51,-94.05 249.27,-86.69"/>
<polygon fill="black" stroke="black" points="251.09,-89.68 258.01,-81.65 247.6,-83.62 251.09,-89.68"/>
<text text-anchor="middle" x="234" y="-99.8" font-family="Helvetica,Arial,sans-serif" font-size="14.00">5</text>
</g>
<!-- 2 -->
<g id="node4" class="node">
<title>2</title>
<ellipse fill="none" stroke="black" cx="442" cy="-101" rx="18" ry="18"/>
<text text-anchor="middle" x="442" y="-97.3" font-family="Helvetica,Arial,sans-serif" font-size="14.00">2</text>
</g>
<!-- 2&#45;&gt;4 -->
<g id="edge3" class="edge">
<title>2&#45;&gt;4</title>
<path fill="none" stroke="black" d="M424.35,-104.86C418.57,-106.06 412.03,-107.26 406,-108 340.32,-116.08 262.39,-117.74 222.12,-118.01"/>
<polygon fill="black" stroke="black" points="222.01,-114.51 212.03,-118.06 222.05,-121.51 222.01,-114.51"/>
<text text-anchor="middle" x="318" y="-118.8" font-family="Helvetica,Arial,sans-serif" font-size="14.00">12</text>
</g>
<!-- 0 -->
<g id="node5" class="node">
<title>0</title>
<ellipse fill="none" stroke="black" cx="362" cy="-40" rx="18" ry="18"/>
<text text-anchor="middle" x="362" y="-36.3" font-family="Helvetica,Arial,sans-serif" font-size="14.00">0</text>
</g>
<!-- 0&#45;&gt;1 -->
<g id="edge4" class="edge">
<title>0&#45;&gt;1</title>
<path fill="none" stroke="black" d="M347.31,-29.07C331.06,-17.23 302.66,0 275,0 105,0 105,0 105,0 75.82,0 50.44,-24.21 34.96,-43.31"/>
<polygon fill="black" stroke="black" points="32.09,-41.3 28.76,-51.35 37.63,-45.57 32.09,-41.3"/>
<text text-anchor="middle" x="194" y="-3.8" font-family="Helvetica,Arial,sans-serif" font-size="14.00">7</text>
</g>
<!-- 0&#45;&gt;2 -->
<g id="edge5" class="edge">
<title>0&#45;&gt;2</title>
<path fill="none" stroke="black" d="M377.08,-50.19C385.55,-56.39 396.49,-64.53 406,-72 410.58,-75.6 415.42,-79.53 420,-83.3"/>
<polygon fill="black" stroke="black" points="417.91,-86.11 427.84,-89.82 422.39,-80.73 417.91,-86.11"/>
<text text-anchor="middle" x="402" y="-75.8" font-family="Helvetica,Arial,sans-serif" font-size="14.00">8</text>
</g>
<!-- 0&#45;&gt;3 -->
<g id="edge6" class="edge">
<title>0&#45;&gt;3</title>
<path fill="none" stroke="black" d="M344.9,-46.18C332.42,-50.97 314.91,-57.69 300.53,-63.2"/>
<polygon fill="black" stroke="black" points="299.26,-59.94 291.18,-66.79 301.77,-66.48 299.26,-59.94"/>
<text text-anchor="middle" x="318" y="-62.8" font-family="Helvetica,Arial,sans-serif" font-size="14.00">5</text>
</g>
<!-- 3&#45;&gt;1 -->
<g id="edge7" class="edge">
<title>3&#45;&gt;1</title>
<path fill="none" stroke="black" d="M255.93,-71.31C250.23,-70.8 243.85,-70.3 238,-70 168.98,-66.42 87.57,-65.9 46.16,-65.91"/>
<polygon fill="black" stroke="black" points="46.05,-62.41 36.05,-65.92 46.06,-69.41 46.05,-62.41"/>
<text text-anchor="middle" x="150" y="-70.8" font-family="Helvetica,Arial,sans-serif" font-size="14.00">11</text>
</g>
<!-- 3&#45;&gt;4 -->
<g id="edge10" class="edge">
<title>3&#45;&gt;4</title>
<path fill="none" stroke="black" d="M255.83,-71.68C247.6,-71.76 237.85,-72.93 230,-77 222.29,-81 215.57,-87.49 210.13,-94.13"/>
<polygon fill="black" stroke="black" points="207.1,-92.35 203.96,-102.46 212.73,-96.51 207.1,-92.35"/>
<text text-anchor="middle" x="234" y="-80.8" font-family="Helvetica,Arial,sans-serif" font-size="14.00">0</text>
</g>
<!-- 3&#45;&gt;2 -->
<g id="edge8" class="edge">
<title>3&#45;&gt;2</title>
<path fill="none" stroke="black" d="M291.83,-75.84C320.66,-80.7 379.73,-90.67 414.26,-96.49"/>
<polygon fill="black" stroke="black" points="413.68,-99.94 424.12,-98.15 414.85,-93.04 413.68,-99.94"/>
<text text-anchor="middle" x="362" y="-93.8" font-family="Helvetica,Arial,sans-serif" font-size="14.00">2</text>
</g>
<!-- 3&#45;&gt;0 -->
<g id="edge9" class="edge">
<title>3&#45;&gt;0</title>
<path fill="none" stroke="black" d="M283.96,-57.86C290.07,-49.11 299.03,-38.89 310,-34 317.67,-30.58 326.6,-30.49 334.83,-31.74"/>
<polygon fill="black" stroke="black" points="334.21,-35.19 344.72,-33.89 335.7,-28.35 334.21,-35.19"/>
<text text-anchor="middle" x="318" y="-37.8" font-family="Helvetica,Arial,sans-serif" font-size="14.00">5</text>
</g>
</g>
</svg>
