<?xml version="1.0" encoding="UTF-8" standalone="no"?>
<!DOCTYPE svg PUBLIC "-//W3C//DTD SVG 1.1//EN"
 "http://www.w3.org/Graphics/SVG/1.1/DTD/svg11.dtd">
<!-- Generated by graphviz version 2.43.0 (0)
 -->
<!-- Title: finite_state_machine Pages: 1 -->
<svg width="124pt" height="46pt"
 viewBox="0.00 0.00 124.00 46.31" xmlns="http://www.w3.org/2000/svg" xmlns:xlink="http://www.w3.org/1999/xlink">
<g id="graph0" class="graph" transform="scale(1 1) rotate(0) translate(4 42.31)">
<title>finite_state_machine</title>
<polygon fill="white" stroke="transparent" points="-4,4 -4,-42.31 120,-42.31 120,4 -4,4"/>
<!-- 2 -->
<g id="node1" class="node">
<title>2</title>
<ellipse fill="none" stroke="black" cx="18" cy="-20.31" rx="18" ry="18"/>
<text text-anchor="middle" x="18" y="-16.61" font-family="Helvetica,Arial,sans-serif" font-size="14.00">2</text>
</g>
<!-- 1 -->
<g id="node2" class="node">
<title>1</title>
<ellipse fill="none" stroke="black" cx="98" cy="-20.31" rx="18" ry="18"/>
<text text-anchor="middle" x="98" y="-16.61" font-family="Helvetica,Arial,sans-serif" font-size="14.00">1</text>
</g>
<!-- 2&#45;&gt;1 -->
<g id="edge1" class="edge">
<title>2&#45;&gt;1</title>
<path fill="none" stroke="black" d="M36.31,-20.31C46.11,-20.31 58.58,-20.31 69.67,-20.31"/>
<polygon fill="black" stroke="black" points="69.74,-23.81 79.74,-20.31 69.74,-16.81 69.74,-23.81"/>
<text text-anchor="middle" x="58" y="-24.11" font-family="Helvetica,Arial,sans-serif" font-size="14.00">2</text>
</g>
<!-- 1&#45;&gt;2 -->
<g id="edge2" class="edge">
<title>1&#45;&gt;2</title>
<path fill="none" stroke="black" d="M83.48,-9.13C75.21,-3.63 64.28,1.31 54,-1.31 50.04,-2.31 46.05,-3.86 42.24,-5.66"/>
<polygon fill="black" stroke="black" points="40.48,-2.63 33.31,-10.44 43.78,-8.81 40.48,-2.63"/>
<text text-anchor="middle" x="58" y="-5.11" font-family="Helvetica,Arial,sans-serif" font-size="14.00">6</text>
</g>
</g>
</svg>
